<svg width="201" height="201" viewBox="0 0 201 201" fill="none" xmlns="http://www.w3.org/2000/svg">
<path d="M127.718 54.4375C132.716 54.4375 137.509 52.4522 141.043 48.9183C144.576 45.3844 146.562 40.5914 146.562 35.5938C146.562 30.5961 144.576 25.8031 141.043 22.2692C137.509 18.7353 132.716 16.75 127.718 16.75C122.72 16.75 117.927 18.7353 114.394 22.2692C110.86 25.8031 108.874 30.5961 108.874 35.5938C108.874 40.5914 110.86 45.3844 114.394 48.9183C117.927 52.4522 122.72 54.4375 127.718 54.4375ZM103.707 54.4291C91.1863 52.6704 62.5689 57.754 50.7769 89.1854C49.9973 91.2655 50.0759 93.5702 50.9955 95.5923C51.9151 97.6145 53.6004 99.1885 55.6805 99.9682C57.7606 100.748 60.0653 100.669 62.0875 99.7496C64.1096 98.83 65.6837 97.1448 66.4633 95.0646C71.3543 82.0415 80.1648 75.6681 88.0206 72.829L78.2218 98.0042C78.0599 98.423 77.9343 98.8418 77.8449 99.2605C77.4435 100.548 77.3588 101.913 77.5979 103.239C77.837 104.566 78.393 105.816 79.2184 106.882L109.05 145.465L110.985 176.394C111.04 177.501 111.314 178.587 111.792 179.587C112.27 180.587 112.941 181.483 113.767 182.222C114.594 182.96 115.559 183.528 116.606 183.891C117.653 184.254 118.762 184.406 119.869 184.337C120.975 184.268 122.057 183.981 123.051 183.491C124.046 183.001 124.933 182.318 125.661 181.483C126.39 180.647 126.945 179.675 127.296 178.624C127.646 177.572 127.784 176.461 127.701 175.356L125.44 139.285L107.92 116.613L119.418 94.3276L120.197 95.4499C122.378 98.6188 125.583 100.941 129.274 102.025C132.965 103.109 136.916 102.89 140.465 101.404L158.178 93.9843C160.175 93.0921 161.745 91.4538 162.55 89.4196C163.355 87.3855 163.332 85.1171 162.486 83.0995C161.641 81.0819 160.039 79.4754 158.024 78.6234C156.009 77.7715 153.741 77.7418 151.704 78.5408L133.991 85.961L120.541 66.4054C117.443 61.0433 112.498 56.994 106.63 55.0154C105.682 54.6957 104.697 54.4987 103.699 54.4291" fill="url(#paint0_linear_322_2412)"/>
<path d="M70.7685 137.769L77.6946 117.233L89.9975 133.146L86.6307 143.12C85.4475 146.628 83.1359 149.644 80.0571 151.699C76.9782 153.753 73.3055 154.73 69.6127 154.477L45.4927 152.827C44.3951 152.752 43.3229 152.462 42.3375 151.973C41.352 151.484 40.4726 150.805 39.7493 149.976C39.0261 149.147 38.4732 148.184 38.1222 147.141C37.7713 146.098 37.6292 144.997 37.704 143.899C37.7787 142.802 38.069 141.729 38.5581 140.744C39.0473 139.758 39.7257 138.879 40.5547 138.156C41.3837 137.433 42.3471 136.88 43.3898 136.529C44.4325 136.178 45.5341 136.036 46.6317 136.11L70.7685 137.769Z" fill="url(#paint1_linear_322_2412)"/>
<defs>
<linearGradient id="paint0_linear_322_2412" x1="106.691" y1="16.75" x2="106.691" y2="184.353" gradientUnits="userSpaceOnUse">
<stop stop-color="#0071E1"/>
<stop offset="1" stop-color="#260CBA"/>
</linearGradient>
<linearGradient id="paint1_linear_322_2412" x1="63.841" y1="117.233" x2="63.841" y2="154.516" gradientUnits="userSpaceOnUse">
<stop stop-color="#0071E1"/>
<stop offset="1" stop-color="#260CBA"/>
</linearGradient>
</defs>
</svg>
